<svg width="374" height="363" viewBox="0 0 374 363" fill="none" xmlns="http://www.w3.org/2000/svg">
<path d="M140.25 158.812C153.16 158.812 163.625 148.655 163.625 136.125C163.625 123.595 153.16 113.438 140.25 113.438C127.34 113.438 116.875 123.595 116.875 136.125C116.875 148.655 127.34 158.812 140.25 158.812Z" fill="#699BF7"/>
<path d="M233.75 158.812C246.66 158.812 257.125 148.655 257.125 136.125C257.125 123.595 246.66 113.438 233.75 113.438C220.84 113.438 210.375 123.595 210.375 136.125C210.375 148.655 220.84 158.812 233.75 158.812Z" fill="#699BF7"/>
<path d="M187 340.312C96.7725 340.312 23.375 269.074 23.375 181.5C23.375 93.9263 96.7725 22.6875 187 22.6875C277.227 22.6875 350.625 93.9263 350.625 181.5C350.625 269.074 277.227 340.312 187 340.312ZM187 45.375C109.629 45.375 46.75 106.404 46.75 181.5C46.75 256.596 109.629 317.625 187 317.625C264.371 317.625 327.25 256.596 327.25 181.5C327.25 106.404 264.371 45.375 187 45.375Z" fill="#699BF7"/>
<path d="M253.151 260.906C248.243 260.906 243.801 257.957 242.165 253.419C238.144 242.335 230.678 232.735 220.797 225.944C210.916 219.153 199.108 215.506 187 215.506C174.893 215.506 163.084 219.153 153.203 225.944C143.322 232.735 135.856 242.335 131.835 253.419C129.731 259.318 122.953 262.494 116.875 260.226C115.42 259.737 114.08 258.97 112.935 257.969C111.79 256.969 110.863 255.757 110.21 254.403C109.556 253.049 109.188 251.582 109.129 250.088C109.069 248.595 109.319 247.104 109.863 245.706C121.316 213.943 152.405 192.844 187 192.844C221.595 192.844 252.684 214.17 264.138 245.706C264.77 247.418 264.97 249.253 264.719 251.056C264.469 252.86 263.777 254.578 262.7 256.067C261.624 257.557 260.195 258.774 258.533 259.616C256.872 260.458 255.026 260.9 253.151 260.906Z" fill="#699BF7"/>
</svg>
