<svg width="27" height="30" viewBox="0 0 27 30" fill="none" xmlns="http://www.w3.org/2000/svg">
<path d="M21.8333 9.33209C21.8333 7.12228 20.9554 5.00298 19.3926 3.44041C17.8298 1.87784 15.7101 1 13.5 1C11.2899 1 9.17025 1.87784 7.60744 3.44041C6.04464 5.00298 5.16667 7.12228 5.16667 9.33209C5.16667 19.0529 1 21.8302 1 21.8302H26C26 21.8302 21.8333 19.0529 21.8333 9.33209Z" stroke="#FAFAFA" stroke-width="2" stroke-linecap="round" stroke-linejoin="round"/>
<path d="M15.9047 27.3848C15.6605 27.8057 15.31 28.1551 14.8883 28.3979C14.4666 28.6408 13.9885 28.7686 13.5019 28.7686C13.0153 28.7686 12.5372 28.6408 12.1155 28.3979C11.6938 28.1551 11.3433 27.8057 11.0991 27.3848" stroke="#FAFAFA" stroke-width="2" stroke-linecap="round" stroke-linejoin="round"/>
</svg>
